<mxfile host="app.diagrams.net" modified="2022-07-11T05:27:56.555Z" agent="5.0 (Windows NT 10.0; Win64; x64) AppleWebKit/537.36 (KHTML, like Gecko) Chrome/103.0.0.0 Safari/537.36" etag="U8ZMDwz-WHWJ8bDgS9n2" version="20.0.4" type="github">
  <diagram id="cz0Xehmixgallz9f_qy4" name="Page-1">
    <mxGraphModel dx="1422" dy="762" grid="1" gridSize="10" guides="1" tooltips="1" connect="1" arrows="1" fold="1" page="1" pageScale="1" pageWidth="1200" pageHeight="1920" math="0" shadow="0">
      <root>
        <mxCell id="0" />
        <mxCell id="1" parent="0" />
        <mxCell id="Dm-0MZmkFqTeIRGYRwWr-4" value="" style="endArrow=classic;html=1;rounded=0;" parent="1" edge="1">
          <mxGeometry width="50" height="50" relative="1" as="geometry">
            <mxPoint x="649.5" y="210" as="sourcePoint" />
            <mxPoint x="649.5" y="250" as="targetPoint" />
          </mxGeometry>
        </mxCell>
        <mxCell id="Dm-0MZmkFqTeIRGYRwWr-5" value="後台系統change tab至圖例管理" style="ellipse;whiteSpace=wrap;html=1;" parent="1" vertex="1">
          <mxGeometry x="550" y="130" width="200" height="80" as="geometry" />
        </mxCell>
        <mxCell id="Dm-0MZmkFqTeIRGYRwWr-21" value="" style="edgeStyle=orthogonalEdgeStyle;rounded=0;orthogonalLoop=1;jettySize=auto;html=1;fontSize=13;" parent="1" source="Dm-0MZmkFqTeIRGYRwWr-6" edge="1">
          <mxGeometry relative="1" as="geometry">
            <mxPoint x="650" y="370" as="targetPoint" />
          </mxGeometry>
        </mxCell>
        <mxCell id="Dm-0MZmkFqTeIRGYRwWr-6" value="呈現圖例列表" style="rounded=1;whiteSpace=wrap;html=1;" parent="1" vertex="1">
          <mxGeometry x="550" y="250" width="200" height="80" as="geometry" />
        </mxCell>
        <mxCell id="Dm-0MZmkFqTeIRGYRwWr-7" value="" style="endArrow=classic;html=1;rounded=0;" parent="1" edge="1">
          <mxGeometry width="50" height="50" relative="1" as="geometry">
            <mxPoint x="649.5" y="330" as="sourcePoint" />
            <mxPoint x="649.5" y="370" as="targetPoint" />
          </mxGeometry>
        </mxCell>
        <mxCell id="Dm-0MZmkFqTeIRGYRwWr-8" value="是否有符合篩選條件結果" style="rhombus;whiteSpace=wrap;html=1;" parent="1" vertex="1">
          <mxGeometry x="550" y="490" width="200" height="120" as="geometry" />
        </mxCell>
        <mxCell id="Dm-0MZmkFqTeIRGYRwWr-10" value="" style="endArrow=classic;html=1;rounded=0;" parent="1" edge="1">
          <mxGeometry width="50" height="50" relative="1" as="geometry">
            <mxPoint x="649.5" y="450" as="sourcePoint" />
            <mxPoint x="649.5" y="490" as="targetPoint" />
          </mxGeometry>
        </mxCell>
        <mxCell id="Dm-0MZmkFqTeIRGYRwWr-12" value="是" style="text;html=1;strokeColor=none;fillColor=none;align=center;verticalAlign=middle;whiteSpace=wrap;rounded=0;" parent="1" vertex="1">
          <mxGeometry x="620" y="620" width="60" height="30" as="geometry" />
        </mxCell>
        <mxCell id="Dm-0MZmkFqTeIRGYRwWr-13" value="否" style="text;html=1;strokeColor=none;fillColor=none;align=center;verticalAlign=middle;whiteSpace=wrap;rounded=0;" parent="1" vertex="1">
          <mxGeometry x="750" y="535" width="60" height="30" as="geometry" />
        </mxCell>
        <mxCell id="Dm-0MZmkFqTeIRGYRwWr-14" value="" style="endArrow=classic;html=1;rounded=0;" parent="1" edge="1">
          <mxGeometry width="50" height="50" relative="1" as="geometry">
            <mxPoint x="649.5" y="650" as="sourcePoint" />
            <mxPoint x="649.5" y="690" as="targetPoint" />
          </mxGeometry>
        </mxCell>
        <mxCell id="Dm-0MZmkFqTeIRGYRwWr-15" value="呈現篩選過後的列表" style="rounded=1;whiteSpace=wrap;html=1;" parent="1" vertex="1">
          <mxGeometry x="550" y="690" width="200" height="80" as="geometry" />
        </mxCell>
        <mxCell id="Dm-0MZmkFqTeIRGYRwWr-16" value="" style="endArrow=classic;html=1;rounded=0;" parent="1" edge="1">
          <mxGeometry width="50" height="50" relative="1" as="geometry">
            <mxPoint x="800" y="549.5" as="sourcePoint" />
            <mxPoint x="840" y="549.5" as="targetPoint" />
          </mxGeometry>
        </mxCell>
        <mxCell id="Dm-0MZmkFqTeIRGYRwWr-17" value="呈現&lt;span style=&quot;color: rgb(56, 56, 56); font-family: 特定字修正, 微軟正黑體, &amp;quot;Microsoft JhengHei&amp;quot;; background-color: rgb(255, 255, 255);&quot;&gt;&lt;font style=&quot;font-size: 13px;&quot;&gt;無查詢結果提示文字於列表中&lt;/font&gt;&lt;/span&gt;" style="rounded=1;whiteSpace=wrap;html=1;" parent="1" vertex="1">
          <mxGeometry x="840" y="510" width="200" height="80" as="geometry" />
        </mxCell>
        <mxCell id="Dm-0MZmkFqTeIRGYRwWr-18" value="" style="curved=1;endArrow=classic;html=1;rounded=0;fontSize=13;entryX=1;entryY=0.5;entryDx=0;entryDy=0;" parent="1" edge="1">
          <mxGeometry width="50" height="50" relative="1" as="geometry">
            <mxPoint x="910" y="510" as="sourcePoint" />
            <mxPoint x="750" y="410" as="targetPoint" />
            <Array as="points">
              <mxPoint x="910" y="480" />
              <mxPoint x="910" y="460" />
              <mxPoint x="910" y="420" />
              <mxPoint x="850" y="410" />
            </Array>
          </mxGeometry>
        </mxCell>
        <mxCell id="Dm-0MZmkFqTeIRGYRwWr-19" value="" style="endArrow=classic;html=1;rounded=0;fontSize=13;" parent="1" edge="1">
          <mxGeometry width="50" height="50" relative="1" as="geometry">
            <mxPoint x="750" y="290" as="sourcePoint" />
            <mxPoint x="1070" y="290" as="targetPoint" />
          </mxGeometry>
        </mxCell>
        <mxCell id="Dm-0MZmkFqTeIRGYRwWr-20" value="新增圖例列表" style="rounded=1;whiteSpace=wrap;html=1;fontSize=13;" parent="1" vertex="1">
          <mxGeometry x="1070" y="250" width="200" height="80" as="geometry" />
        </mxCell>
        <mxCell id="Dm-0MZmkFqTeIRGYRwWr-22" value="" style="endArrow=classic;html=1;rounded=0;" parent="1" edge="1">
          <mxGeometry width="50" height="50" relative="1" as="geometry">
            <mxPoint x="1169.5" y="330" as="sourcePoint" />
            <mxPoint x="1169.75" y="370" as="targetPoint" />
          </mxGeometry>
        </mxCell>
        <mxCell id="Dm-0MZmkFqTeIRGYRwWr-249" value="" style="endArrow=classic;html=1;rounded=0;" parent="1" edge="1">
          <mxGeometry width="50" height="50" relative="1" as="geometry">
            <mxPoint x="1169.52" y="450" as="sourcePoint" />
            <mxPoint x="1169.52" y="490" as="targetPoint" />
          </mxGeometry>
        </mxCell>
        <mxCell id="Dm-0MZmkFqTeIRGYRwWr-250" value="圖例名稱字數檢查&lt;br&gt;圖例分類是否為空值&lt;br&gt;圖片是否符合規範" style="rhombus;whiteSpace=wrap;html=1;" parent="1" vertex="1">
          <mxGeometry x="1070" y="490" width="200" height="120" as="geometry" />
        </mxCell>
        <mxCell id="Dm-0MZmkFqTeIRGYRwWr-251" value="是" style="text;html=1;strokeColor=none;fillColor=none;align=center;verticalAlign=middle;whiteSpace=wrap;rounded=0;" parent="1" vertex="1">
          <mxGeometry x="1140" y="620" width="60" height="30" as="geometry" />
        </mxCell>
        <mxCell id="Dm-0MZmkFqTeIRGYRwWr-252" value="" style="endArrow=classic;html=1;rounded=0;" parent="1" target="Dm-0MZmkFqTeIRGYRwWr-253" edge="1">
          <mxGeometry width="50" height="50" relative="1" as="geometry">
            <mxPoint x="1169.52" y="650" as="sourcePoint" />
            <mxPoint x="1169.52" y="690" as="targetPoint" />
          </mxGeometry>
        </mxCell>
        <mxCell id="Dm-0MZmkFqTeIRGYRwWr-253" value="確認btn取消disabled class" style="rounded=1;whiteSpace=wrap;html=1;fontSize=13;" parent="1" vertex="1">
          <mxGeometry x="1070" y="690" width="200" height="80" as="geometry" />
        </mxCell>
        <mxCell id="Dm-0MZmkFqTeIRGYRwWr-254" value="否" style="text;html=1;strokeColor=none;fillColor=none;align=center;verticalAlign=middle;whiteSpace=wrap;rounded=0;" parent="1" vertex="1">
          <mxGeometry x="1270" y="535" width="60" height="30" as="geometry" />
        </mxCell>
        <mxCell id="Dm-0MZmkFqTeIRGYRwWr-256" value="" style="endArrow=classic;html=1;rounded=0;" parent="1" target="Dm-0MZmkFqTeIRGYRwWr-257" edge="1">
          <mxGeometry width="50" height="50" relative="1" as="geometry">
            <mxPoint x="1310" y="549.52" as="sourcePoint" />
            <mxPoint x="1350" y="549.52" as="targetPoint" />
          </mxGeometry>
        </mxCell>
        <mxCell id="Dm-0MZmkFqTeIRGYRwWr-257" value="確認btn持續disabled" style="rounded=1;whiteSpace=wrap;html=1;fontSize=13;" parent="1" vertex="1">
          <mxGeometry x="1350" y="510" width="180" height="80" as="geometry" />
        </mxCell>
        <mxCell id="Dm-0MZmkFqTeIRGYRwWr-258" value="" style="endArrow=classic;html=1;rounded=0;" parent="1" target="Dm-0MZmkFqTeIRGYRwWr-259" edge="1">
          <mxGeometry width="50" height="50" relative="1" as="geometry">
            <mxPoint x="1169.5199999999998" y="770" as="sourcePoint" />
            <mxPoint x="1169.7599999999998" y="810" as="targetPoint" />
          </mxGeometry>
        </mxCell>
        <mxCell id="Dm-0MZmkFqTeIRGYRwWr-259" value="確認 / 取消&lt;br&gt;新增 / 編輯圖例" style="rhombus;whiteSpace=wrap;html=1;fontSize=13;" parent="1" vertex="1">
          <mxGeometry x="1070" y="810" width="200" height="120" as="geometry" />
        </mxCell>
        <mxCell id="Dm-0MZmkFqTeIRGYRwWr-260" value="是" style="text;html=1;strokeColor=none;fillColor=none;align=center;verticalAlign=middle;whiteSpace=wrap;rounded=0;" parent="1" vertex="1">
          <mxGeometry x="1140" y="940" width="60" height="30" as="geometry" />
        </mxCell>
        <mxCell id="Dm-0MZmkFqTeIRGYRwWr-261" value="" style="endArrow=classic;html=1;rounded=0;" parent="1" edge="1">
          <mxGeometry width="50" height="50" relative="1" as="geometry">
            <mxPoint x="1169.5199999999998" y="970" as="sourcePoint" />
            <mxPoint x="1169.7599999999998" y="1010" as="targetPoint" />
          </mxGeometry>
        </mxCell>
        <mxCell id="Dm-0MZmkFqTeIRGYRwWr-262" value="否" style="text;html=1;strokeColor=none;fillColor=none;align=center;verticalAlign=middle;whiteSpace=wrap;rounded=0;" parent="1" vertex="1">
          <mxGeometry x="1260" y="855" width="60" height="30" as="geometry" />
        </mxCell>
        <mxCell id="Dm-0MZmkFqTeIRGYRwWr-263" value="" style="endArrow=classic;html=1;rounded=0;" parent="1" target="Dm-0MZmkFqTeIRGYRwWr-264" edge="1">
          <mxGeometry width="50" height="50" relative="1" as="geometry">
            <mxPoint x="1310" y="869.52" as="sourcePoint" />
            <mxPoint x="1350" y="869.52" as="targetPoint" />
          </mxGeometry>
        </mxCell>
        <mxCell id="Dm-0MZmkFqTeIRGYRwWr-264" value="清空新增 / 編輯欄位，返回圖例列表" style="rounded=1;whiteSpace=wrap;html=1;fontSize=13;" parent="1" vertex="1">
          <mxGeometry x="1350" y="830" width="180" height="80" as="geometry" />
        </mxCell>
        <mxCell id="Dm-0MZmkFqTeIRGYRwWr-266" value="call Add api" style="rounded=0;whiteSpace=wrap;html=1;fontSize=13;" parent="1" vertex="1">
          <mxGeometry x="1070" y="1010" width="200" height="80" as="geometry" />
        </mxCell>
        <mxCell id="Dm-0MZmkFqTeIRGYRwWr-267" value="" style="endArrow=classic;html=1;rounded=0;" parent="1" edge="1">
          <mxGeometry width="50" height="50" relative="1" as="geometry">
            <mxPoint x="1169.5199999999998" y="1090" as="sourcePoint" />
            <mxPoint x="1169.7599999999998" y="1130" as="targetPoint" />
          </mxGeometry>
        </mxCell>
        <mxCell id="Dm-0MZmkFqTeIRGYRwWr-269" value="&lt;br&gt;user input圖例名稱&lt;br&gt;選擇圖例分類&lt;br&gt;圖例圖片上傳" style="shape=manualInput;whiteSpace=wrap;html=1;fontSize=13;" parent="1" vertex="1">
          <mxGeometry x="1070" y="360" width="200" height="90" as="geometry" />
        </mxCell>
        <mxCell id="Dm-0MZmkFqTeIRGYRwWr-270" value="&lt;span style=&quot;font-size: 12px;&quot;&gt;&lt;br&gt;設定搜尋篩選條件&lt;/span&gt;" style="shape=manualInput;whiteSpace=wrap;html=1;fontSize=13;" parent="1" vertex="1">
          <mxGeometry x="550" y="370" width="200" height="80" as="geometry" />
        </mxCell>
        <mxCell id="Dm-0MZmkFqTeIRGYRwWr-271" value="新增成功，返回圖例列表" style="shape=display;whiteSpace=wrap;html=1;fontSize=13;" parent="1" vertex="1">
          <mxGeometry x="1070" y="1130" width="200" height="80" as="geometry" />
        </mxCell>
        <mxCell id="Dm-0MZmkFqTeIRGYRwWr-273" value="" style="endArrow=classic;html=1;rounded=0;fontSize=13;" parent="1" edge="1">
          <mxGeometry width="50" height="50" relative="1" as="geometry">
            <mxPoint x="550" y="289.52" as="sourcePoint" />
            <mxPoint x="200" y="289.52" as="targetPoint" />
          </mxGeometry>
        </mxCell>
        <mxCell id="Dm-0MZmkFqTeIRGYRwWr-275" value="刪除圖例列表" style="rounded=1;whiteSpace=wrap;html=1;" parent="1" vertex="1">
          <mxGeometry y="250" width="200" height="80" as="geometry" />
        </mxCell>
        <mxCell id="Dm-0MZmkFqTeIRGYRwWr-276" value="" style="endArrow=classic;html=1;rounded=0;" parent="1" target="Dm-0MZmkFqTeIRGYRwWr-277" edge="1">
          <mxGeometry width="50" height="50" relative="1" as="geometry">
            <mxPoint x="99.51999999999998" y="330" as="sourcePoint" />
            <mxPoint x="99.51999999999998" y="370" as="targetPoint" />
          </mxGeometry>
        </mxCell>
        <mxCell id="Dm-0MZmkFqTeIRGYRwWr-277" value="選擇欲刪除圖例" style="rounded=1;whiteSpace=wrap;html=1;fontSize=13;" parent="1" vertex="1">
          <mxGeometry y="360" width="200" height="80" as="geometry" />
        </mxCell>
        <mxCell id="Dm-0MZmkFqTeIRGYRwWr-278" value="" style="endArrow=classic;html=1;rounded=0;" parent="1" target="Dm-0MZmkFqTeIRGYRwWr-281" edge="1">
          <mxGeometry width="50" height="50" relative="1" as="geometry">
            <mxPoint x="99.51999999999998" y="440" as="sourcePoint" />
            <mxPoint x="100" y="480" as="targetPoint" />
          </mxGeometry>
        </mxCell>
        <mxCell id="Dm-0MZmkFqTeIRGYRwWr-280" value="是否刪除圖例" style="rhombus;whiteSpace=wrap;html=1;fontSize=13;" parent="1" vertex="1">
          <mxGeometry y="600" width="200" height="120" as="geometry" />
        </mxCell>
        <mxCell id="Dm-0MZmkFqTeIRGYRwWr-281" value="顯示刪除提示modal" style="rounded=1;whiteSpace=wrap;html=1;fontSize=13;" parent="1" vertex="1">
          <mxGeometry y="475" width="200" height="85" as="geometry" />
        </mxCell>
        <mxCell id="Dm-0MZmkFqTeIRGYRwWr-282" value="" style="endArrow=classic;html=1;rounded=0;entryX=0.5;entryY=0;entryDx=0;entryDy=0;" parent="1" target="Dm-0MZmkFqTeIRGYRwWr-280" edge="1">
          <mxGeometry width="50" height="50" relative="1" as="geometry">
            <mxPoint x="99.51999999999998" y="560" as="sourcePoint" />
            <mxPoint x="99.7367741935484" y="595" as="targetPoint" />
          </mxGeometry>
        </mxCell>
        <mxCell id="Dm-0MZmkFqTeIRGYRwWr-283" value="是" style="text;html=1;strokeColor=none;fillColor=none;align=center;verticalAlign=middle;whiteSpace=wrap;rounded=0;" parent="1" vertex="1">
          <mxGeometry x="70" y="730" width="60" height="30" as="geometry" />
        </mxCell>
        <mxCell id="Dm-0MZmkFqTeIRGYRwWr-284" value="否" style="text;html=1;strokeColor=none;fillColor=none;align=center;verticalAlign=middle;whiteSpace=wrap;rounded=0;" parent="1" vertex="1">
          <mxGeometry x="190" y="645" width="60" height="30" as="geometry" />
        </mxCell>
        <mxCell id="Dm-0MZmkFqTeIRGYRwWr-285" value="" style="endArrow=classic;html=1;rounded=0;" parent="1" edge="1">
          <mxGeometry width="50" height="50" relative="1" as="geometry">
            <mxPoint x="240" y="659.52" as="sourcePoint" />
            <mxPoint x="280" y="659.52" as="targetPoint" />
          </mxGeometry>
        </mxCell>
        <mxCell id="Dm-0MZmkFqTeIRGYRwWr-286" value="關閉刪除提示modal" style="rounded=1;whiteSpace=wrap;html=1;fontSize=13;" parent="1" vertex="1">
          <mxGeometry x="280" y="617.5" width="200" height="85" as="geometry" />
        </mxCell>
        <mxCell id="Dm-0MZmkFqTeIRGYRwWr-287" value="call Delete api" style="rounded=0;whiteSpace=wrap;html=1;fontSize=13;" parent="1" vertex="1">
          <mxGeometry y="800" width="200" height="90" as="geometry" />
        </mxCell>
        <mxCell id="Dm-0MZmkFqTeIRGYRwWr-288" value="" style="endArrow=classic;html=1;rounded=0;entryX=0.5;entryY=0;entryDx=0;entryDy=0;" parent="1" edge="1">
          <mxGeometry width="50" height="50" relative="1" as="geometry">
            <mxPoint x="99.51999999999998" y="760" as="sourcePoint" />
            <mxPoint x="100" y="800" as="targetPoint" />
          </mxGeometry>
        </mxCell>
        <mxCell id="Dm-0MZmkFqTeIRGYRwWr-289" value="刪除成功，返回圖例列表" style="shape=display;whiteSpace=wrap;html=1;fontSize=13;" parent="1" vertex="1">
          <mxGeometry y="930" width="200" height="80" as="geometry" />
        </mxCell>
        <mxCell id="Dm-0MZmkFqTeIRGYRwWr-290" value="" style="endArrow=classic;html=1;rounded=0;entryX=0.5;entryY=0;entryDx=0;entryDy=0;" parent="1" edge="1">
          <mxGeometry width="50" height="50" relative="1" as="geometry">
            <mxPoint x="99.51999999999998" y="890" as="sourcePoint" />
            <mxPoint x="100" y="930" as="targetPoint" />
          </mxGeometry>
        </mxCell>
        <mxCell id="Dm-0MZmkFqTeIRGYRwWr-292" value="" style="endArrow=classic;html=1;rounded=0;fontSize=13;" parent="1" edge="1">
          <mxGeometry width="50" height="50" relative="1" as="geometry">
            <mxPoint x="1270" y="289.17" as="sourcePoint" />
            <mxPoint x="1590" y="289.17" as="targetPoint" />
          </mxGeometry>
        </mxCell>
        <mxCell id="Dm-0MZmkFqTeIRGYRwWr-293" value="編輯圖例列表" style="rounded=1;whiteSpace=wrap;html=1;fontSize=13;" parent="1" vertex="1">
          <mxGeometry x="1590" y="250" width="200" height="80" as="geometry" />
        </mxCell>
        <mxCell id="Dm-0MZmkFqTeIRGYRwWr-294" value="" style="endArrow=classic;html=1;rounded=0;" parent="1" edge="1">
          <mxGeometry width="50" height="50" relative="1" as="geometry">
            <mxPoint x="1689.67" y="330" as="sourcePoint" />
            <mxPoint x="1689.92" y="370" as="targetPoint" />
          </mxGeometry>
        </mxCell>
        <mxCell id="Dm-0MZmkFqTeIRGYRwWr-295" value="&lt;br&gt;user 編輯圖例名稱&lt;br&gt;選擇圖例分類&lt;br&gt;圖例圖片上傳" style="shape=manualInput;whiteSpace=wrap;html=1;fontSize=13;" parent="1" vertex="1">
          <mxGeometry x="1590" y="360" width="200" height="90" as="geometry" />
        </mxCell>
        <mxCell id="Dm-0MZmkFqTeIRGYRwWr-299" value="" style="shape=partialRectangle;whiteSpace=wrap;html=1;bottom=0;right=0;fillColor=none;fontSize=13;rotation=-180;" parent="1" vertex="1">
          <mxGeometry x="1170" y="450" width="520" height="20" as="geometry" />
        </mxCell>
      </root>
    </mxGraphModel>
  </diagram>
</mxfile>
